<svg width="34" height="15" viewBox="0 0 34 15" fill="none" xmlns="http://www.w3.org/2000/svg">
<path d="M17.0009 0.5C16.7382 0.4992 16.4849 0.5281 16.243 0.5899C15.9855 0.6556 15.7466 0.7671 15.5286 0.9217L1.3439 11.0162C0.833199 11.3787 0.5 11.8645 0.5 12.4723C0.5 13.0802 0.832699 13.5656 1.3434 13.9282C1.8589 14.2949 2.4624 14.47 3.1311 14.47C3.7916 14.47 4.3837 14.309 4.8777 13.9585L17 5.35733L29.1223 13.9585C29.6365 14.3233 30.2322 14.5 30.8892 14.5C31.5462 14.5 32.1419 14.3233 32.6561 13.9585C33.1756 13.5899 33.5 13.0922 33.5 12.4723C33.5 11.8646 33.2014 11.3731 32.6983 11.0162L18.4714 0.9217L18.4701 0.9208C18.2523 0.7673 18.0139 0.6567 17.757 0.5911C17.5158 0.5294 17.263 0.5001 17.0009 0.5Z" fill="#F03153"/>
<path d="M17.0009 0.5C16.7382 0.4992 16.4849 0.5281 16.243 0.5899C15.9855 0.6556 15.7466 0.7671 15.5286 0.9217L1.3439 11.0162M17.0009 0.5C17.263 0.5001 17.5158 0.5294 17.757 0.5911M17.0009 0.5C17.0006 0.5 17.0012 0.5 17.0009 0.5ZM17.0009 0.5L17 1M1.3439 11.0162L1.6332 11.424M1.3439 11.0162C0.833199 11.3787 0.5 11.8645 0.5 12.4723C0.5 13.0802 0.832699 13.5656 1.3434 13.9282C1.8589 14.2949 2.4624 14.47 3.1311 14.47C3.7916 14.47 4.3837 14.309 4.8777 13.9585L17 5.35733L29.1223 13.9585C29.6365 14.3233 30.2322 14.5 30.8892 14.5C31.5462 14.5 32.1419 14.3233 32.6561 13.9585C33.1756 13.5899 33.5 13.0922 33.5 12.4723C33.5 11.8646 33.2014 11.3731 32.6983 11.0162L18.4714 0.9217L18.4701 0.9208C18.2523 0.7673 18.0139 0.6567 17.757 0.5911M17.757 0.5911L17.6337 1.0737" stroke="#F03153"/>
</svg>
