<svg width="92" height="43" viewBox="0 0 92 43" fill="none" xmlns="http://www.w3.org/2000/svg">
<path d="M6.00125 21H12.4012V6.92H17.6812V0.839998H0.721249V6.92H6.00125V21ZM25.3462 12.36L26.6263 7.56L27.9062 12.36H25.3462ZM16.0662 21H22.9462L23.9062 17.48H29.3463L30.3063 21H37.1863L30.4663 0.839998H22.7862L16.0662 21ZM37.015 14.28C37.015 18.12 40.215 21.32 45.655 21.32C50.615 21.32 53.655 18.28 53.655 14.92C53.655 7.88 44.535 8.968 44.535 7.08C44.535 6.6 45.015 6.28 45.655 6.28C46.455 6.28 47.095 6.888 47.095 7.88L53.335 7.24C53.335 3.528 50.295 0.519999 45.015 0.519999C40.247 0.519999 37.335 3.4 37.335 6.6C37.335 13.64 46.455 12.552 46.455 14.44C46.455 15.08 46.007 15.56 45.015 15.56C44.023 15.56 43.255 14.76 43.255 13.64L37.015 14.28ZM59.2488 21H65.6488V6.92H70.9288V0.839998H53.9688V6.92H59.2488V21ZM77.635 21H84.035V13.96L91.075 0.839998H84.035L80.835 7.4L77.635 0.839998H70.595L77.635 13.96V21ZM18.945 42H22.945V31.12H12.545V34.96H16.065C15.841 35.184 15.553 35.408 15.233 35.6C14.689 35.952 13.889 36.24 12.865 36.24C10.657 36.24 8.705 34.32 8.705 31.92C8.705 29.52 10.657 27.6 12.865 27.6C14.049 27.6 14.913 28.016 15.521 28.4C15.873 28.624 16.161 28.912 16.385 29.2L22.785 28.56C22.433 27.248 21.825 26.064 20.993 25.04C19.585 23.28 17.089 21.52 12.865 21.52C6.945 21.52 2.305 26.16 2.305 31.92C2.305 37.68 6.945 42.32 12.225 42.32C14.305 42.32 15.745 41.808 16.737 41.2C17.281 40.88 17.761 40.496 18.145 40.08L18.945 42ZM39.42 31.92C39.42 34.32 37.468 36.24 35.26 36.24C33.052 36.24 31.1 34.32 31.1 31.92C31.1 29.52 33.052 27.6 35.26 27.6C37.468 27.6 39.42 29.52 39.42 31.92ZM45.82 31.92C45.82 26.16 41.18 21.52 35.26 21.52C29.34 21.52 24.7 26.16 24.7 31.92C24.7 37.68 29.34 42.32 35.26 42.32C41.18 42.32 45.82 37.68 45.82 31.92ZM61.9713 31.92C61.9713 34.32 60.0193 36.24 57.8113 36.24C55.6033 36.24 53.6513 34.32 53.6513 31.92C53.6513 29.52 55.6033 27.6 57.8113 27.6C60.0193 27.6 61.9713 29.52 61.9713 31.92ZM68.3713 31.92C68.3713 26.16 63.7313 21.52 57.8113 21.52C51.8913 21.52 47.2513 26.16 47.2513 31.92C47.2513 37.68 51.8913 42.32 57.8113 42.32C63.7313 42.32 68.3713 37.68 68.3713 31.92ZM76.8425 36.24V27.6H78.1225C80.3305 27.6 82.2825 29.52 82.2825 31.92C82.2825 34.32 80.3305 36.24 78.1225 36.24H76.8425ZM70.4425 42H78.1225C84.3945 42 88.6825 37.68 88.6825 31.92C88.6825 26.16 84.3945 21.84 78.1225 21.84H70.4425V42Z" fill="white"/>
</svg>
