<svg width="69" height="33" viewBox="0 0 69 33" fill="none" xmlns="http://www.w3.org/2000/svg">
<path d="M4.37594 16H9.17594V5.44H13.1359V0.879999H0.415939V5.44H4.37594V16ZM18.8847 9.52L19.8447 5.92L20.8047 9.52H18.8847ZM11.9247 16H17.0847L17.8047 13.36H21.8847L22.6047 16H27.7647L22.7247 0.879999H16.9647L11.9247 16ZM27.6363 10.96C27.6363 13.84 30.0363 16.24 34.1163 16.24C37.8363 16.24 40.1163 13.96 40.1163 11.44C40.1163 6.16 33.2763 6.976 33.2763 5.56C33.2763 5.2 33.6363 4.96 34.1163 4.96C34.7163 4.96 35.1963 5.416 35.1963 6.16L39.8763 5.68C39.8763 2.896 37.5963 0.639999 33.6363 0.639999C30.0603 0.639999 27.8763 2.8 27.8763 5.2C27.8763 10.48 34.7163 9.664 34.7163 11.08C34.7163 11.56 34.3803 11.92 33.6363 11.92C32.8923 11.92 32.3163 11.32 32.3163 10.48L27.6363 10.96ZM44.3116 16H49.1116V5.44H53.0716V0.879999H40.3516V5.44H44.3116V16ZM58.1013 16H62.9013V10.72L68.1813 0.879999H62.9013L60.5013 5.8L58.1013 0.879999H52.8213L58.1013 10.72V16ZM14.0838 32H17.0838V23.84H9.28375V26.72H11.9238C11.7558 26.888 11.5398 27.056 11.2998 27.2C10.8918 27.464 10.2918 27.68 9.52375 27.68C7.86775 27.68 6.40375 26.24 6.40375 24.44C6.40375 22.64 7.86775 21.2 9.52375 21.2C10.4118 21.2 11.0598 21.512 11.5158 21.8C11.7798 21.968 11.9958 22.184 12.1638 22.4L16.9638 21.92C16.6998 20.936 16.2438 20.048 15.6198 19.28C14.5638 17.96 12.6918 16.64 9.52375 16.64C5.08375 16.64 1.60375 20.12 1.60375 24.44C1.60375 28.76 5.08375 32.24 9.04375 32.24C10.6038 32.24 11.6838 31.856 12.4278 31.4C12.8358 31.16 13.1958 30.872 13.4838 30.56L14.0838 32ZM29.44 24.44C29.44 26.24 27.976 27.68 26.32 27.68C24.664 27.68 23.2 26.24 23.2 24.44C23.2 22.64 24.664 21.2 26.32 21.2C27.976 21.2 29.44 22.64 29.44 24.44ZM34.24 24.44C34.24 20.12 30.76 16.64 26.32 16.64C21.88 16.64 18.4 20.12 18.4 24.44C18.4 28.76 21.88 32.24 26.32 32.24C30.76 32.24 34.24 28.76 34.24 24.44ZM46.3534 24.44C46.3534 26.24 44.8894 27.68 43.2334 27.68C41.5774 27.68 40.1134 26.24 40.1134 24.44C40.1134 22.64 41.5774 21.2 43.2334 21.2C44.8894 21.2 46.3534 22.64 46.3534 24.44ZM51.1534 24.44C51.1534 20.12 47.6734 16.64 43.2334 16.64C38.7934 16.64 35.3134 20.12 35.3134 24.44C35.3134 28.76 38.7934 32.24 43.2334 32.24C47.6734 32.24 51.1534 28.76 51.1534 24.44ZM57.5069 27.68V21.2H58.4669C60.1229 21.2 61.5869 22.64 61.5869 24.44C61.5869 26.24 60.1229 27.68 58.4669 27.68H57.5069ZM52.7069 32H58.4669C63.1709 32 66.3869 28.76 66.3869 24.44C66.3869 20.12 63.1709 16.88 58.4669 16.88H52.7069V32Z" fill="#F03153"/>
</svg>
